<mxfile host="app.diagrams.net" modified="2023-06-21T07:20:20.411Z" agent="Mozilla/5.0 (Macintosh; Intel Mac OS X 10_15_7) AppleWebKit/537.36 (KHTML, like Gecko) Chrome/114.0.0.0 Safari/537.36" version="21.5.0" etag="dzmACoQQQ9s284wqVM_E" type="github">
  <diagram name="Page-1" id="66CJjRE1Q9GRHn6FDVG9">
    <mxGraphModel>
      <root>
        <mxCell id="0" />
        <mxCell id="1" parent="0" />
      </root>
    </mxGraphModel>
  </diagram>
</mxfile>
